<mxfile host="app.diagrams.net" modified="2024-05-13T07:13:48.718Z" agent="Mozilla/5.0 (Windows NT 10.0; Win64; x64) AppleWebKit/537.36 (KHTML, like Gecko) Chrome/124.0.0.0 Safari/537.36" etag="Gp7kG-VmD3ClyK9cJY4T" version="24.4.0" type="github">
  <diagram name="第 1 页" id="BbhQ3sLFAGEHEYkjeD8c">
    <mxGraphModel dx="1969" dy="780" grid="0" gridSize="10" guides="1" tooltips="1" connect="1" arrows="1" fold="1" page="0" pageScale="1" pageWidth="827" pageHeight="1169" math="0" shadow="0">
      <root>
        <mxCell id="0" />
        <mxCell id="1" parent="0" />
        <mxCell id="bUwzKDvQNxw6nzo83_uS-1" value="" style="rounded=0;whiteSpace=wrap;html=1;fillColor=#cce5ff;strokeColor=#36393d;" vertex="1" parent="1">
          <mxGeometry x="-38" y="178" width="419" height="282" as="geometry" />
        </mxCell>
        <mxCell id="bUwzKDvQNxw6nzo83_uS-2" value="ilogtail" style="rounded=0;whiteSpace=wrap;html=1;fillColor=#fff2cc;strokeColor=#d6b656;gradientColor=#ffd966;" vertex="1" parent="1">
          <mxGeometry x="238" y="279" width="120" height="60" as="geometry" />
        </mxCell>
        <mxCell id="bUwzKDvQNxw6nzo83_uS-3" value="" style="rounded=0;whiteSpace=wrap;html=1;dashed=1;dashPattern=8 8;fillColor=#eeeeee;strokeColor=#36393d;" vertex="1" parent="1">
          <mxGeometry x="-11" y="208" width="119" height="214" as="geometry" />
        </mxCell>
        <mxCell id="bUwzKDvQNxw6nzo83_uS-4" value="" style="html=1;shadow=0;dashed=0;align=center;verticalAlign=middle;shape=mxgraph.arrows2.arrow;dy=0.6;dx=40;notch=0;" vertex="1" parent="1">
          <mxGeometry x="135" y="296" width="84" height="26" as="geometry" />
        </mxCell>
        <mxCell id="bUwzKDvQNxw6nzo83_uS-7" value="" style="html=1;shadow=0;dashed=0;align=center;verticalAlign=middle;shape=mxgraph.arrows2.arrow;dy=0.6;dx=40;notch=0;" vertex="1" parent="1">
          <mxGeometry x="408" y="291" width="84" height="26" as="geometry" />
        </mxCell>
        <mxCell id="bUwzKDvQNxw6nzo83_uS-8" value="kafak+zookeeper" style="rounded=0;whiteSpace=wrap;html=1;fillColor=#d5e8d4;strokeColor=#82b366;gradientColor=#97d077;" vertex="1" parent="1">
          <mxGeometry x="513" y="276.5" width="120" height="60" as="geometry" />
        </mxCell>
        <mxCell id="bUwzKDvQNxw6nzo83_uS-9" value="logstash" style="rounded=0;whiteSpace=wrap;html=1;fillColor=#ffcd28;strokeColor=#d79b00;gradientColor=#ffa500;" vertex="1" parent="1">
          <mxGeometry x="767" y="272" width="120" height="60" as="geometry" />
        </mxCell>
        <mxCell id="bUwzKDvQNxw6nzo83_uS-12" value="" style="html=1;shadow=0;dashed=0;align=center;verticalAlign=middle;shape=mxgraph.arrows2.arrow;dy=0.6;dx=40;notch=0;" vertex="1" parent="1">
          <mxGeometry x="660" y="285" width="84" height="26" as="geometry" />
        </mxCell>
        <mxCell id="bUwzKDvQNxw6nzo83_uS-14" value="ES" style="shape=cylinder3;whiteSpace=wrap;html=1;boundedLbl=1;backgroundOutline=1;size=15;fillColor=#f5f5f5;strokeColor=#666666;gradientColor=#b3b3b3;" vertex="1" parent="1">
          <mxGeometry x="1051" y="254.5" width="88" height="95" as="geometry" />
        </mxCell>
        <mxCell id="bUwzKDvQNxw6nzo83_uS-15" value="" style="html=1;shadow=0;dashed=0;align=center;verticalAlign=middle;shape=mxgraph.arrows2.arrow;dy=0.6;dx=40;notch=0;" vertex="1" parent="1">
          <mxGeometry x="927" y="287" width="84" height="26" as="geometry" />
        </mxCell>
        <mxCell id="bUwzKDvQNxw6nzo83_uS-18" value="" style="html=1;shadow=0;dashed=0;align=center;verticalAlign=middle;shape=mxgraph.arrows2.arrow;dy=0.6;dx=40;notch=0;" vertex="1" parent="1">
          <mxGeometry x="1171" y="285" width="84" height="26" as="geometry" />
        </mxCell>
        <mxCell id="bUwzKDvQNxw6nzo83_uS-19" value="云擎" style="shape=hexagon;perimeter=hexagonPerimeter2;whiteSpace=wrap;html=1;fixedSize=1;fillColor=#dae8fc;strokeColor=#6c8ebf;gradientColor=#7ea6e0;" vertex="1" parent="1">
          <mxGeometry x="1287" y="260" width="106" height="84" as="geometry" />
        </mxCell>
        <mxCell id="bUwzKDvQNxw6nzo83_uS-20" value="Log File" style="shape=document;whiteSpace=wrap;html=1;boundedLbl=1;" vertex="1" parent="1">
          <mxGeometry x="7" y="234" width="83" height="43" as="geometry" />
        </mxCell>
        <mxCell id="bUwzKDvQNxw6nzo83_uS-21" value="Log File" style="shape=document;whiteSpace=wrap;html=1;boundedLbl=1;" vertex="1" parent="1">
          <mxGeometry x="7" y="293.5" width="83" height="43" as="geometry" />
        </mxCell>
        <mxCell id="bUwzKDvQNxw6nzo83_uS-22" value="Log File" style="shape=document;whiteSpace=wrap;html=1;boundedLbl=1;" vertex="1" parent="1">
          <mxGeometry x="7" y="357" width="83" height="43" as="geometry" />
        </mxCell>
        <mxCell id="bUwzKDvQNxw6nzo83_uS-23" value="&lt;b&gt;K8s Node&lt;/b&gt;" style="text;html=1;align=center;verticalAlign=middle;whiteSpace=wrap;rounded=0;" vertex="1" parent="1">
          <mxGeometry x="141.5" y="403" width="60" height="30" as="geometry" />
        </mxCell>
      </root>
    </mxGraphModel>
  </diagram>
</mxfile>
